<svg version="1.1" xmlns="http://www.w3.org/2000/svg" x="0" y="0" viewBox="0 0 647.5 360" xml:space="preserve"><linearGradient id="a" gradientUnits="userSpaceOnUse" x1="323.741" y1="302.92" x2="323.741" y2="-3.03"><stop offset="0" stop-color="#6D4C39"/><stop offset="1" stop-color="#8C7167"/></linearGradient><path fill="url(#a)" d="M323.7 0C145.2 0 0 77.2 0 172.1c0 47.5 39.1 93.7 107.5 126.9-57.9-30.4-75.3-79.5-75.3-122.8C32.2 91 157.5 26.8 323.7 26.8S615.2 91 615.2 176.2c0 43.3-18.4 92.5-76.3 122.9.1.1.3.2.4.3 68.8-33.3 108.2-79.6 108.2-127.3C647.5 77.2 502.3 0 323.7 0z"/><g><linearGradient id="b" gradientUnits="userSpaceOnUse" x1="132.474" y1="232.491" x2="132.474" y2="110.455"><stop offset="0" stop-color="#212058"/><stop offset=".069" stop-color="#24235F"/><stop offset=".252" stop-color="#2A2B6F"/><stop offset=".437" stop-color="#2D2F7B"/><stop offset=".623" stop-color="#2F3282"/><stop offset=".812" stop-color="#2F3384"/></linearGradient><path fill="url(#b)" d="M92.3 133.5c-.2-7.6-.6-15.3-1.1-23 2 .2 4.2.4 6.6.6 2.4.2 5 .3 8 .3 4.1 0 8.4-.1 12.9-.4 4.4-.3 8.8-.4 13.1-.4 8.4 0 15 .6 19.7 1.9 4.7 1.2 8.5 3 11.2 5.4 3.8 3.1 6.6 6.5 8.3 10.3 1.8 3.8 2.7 8.4 2.7 13.7 0 6.7-1.1 12.6-3.4 17.4-2.3 4.9-5.4 8.8-9.5 11.8s-8.9 5.2-14.5 6.7c-5.6 1.4-11.7 2.1-18.3 2.1h-9c0 8.9.1 17.7.3 26.6.2 8.8.6 17.6 1.2 26.2-2-.2-4.2-.4-6.6-.4h-16c-2.4 0-4.6.1-6.6.4.5-7.3.8-14.8 1.1-22.5.2-7.6.4-16.4.4-26.2v-24.2c-.1-10-.2-18.7-.5-26.3zm51.8-.3c-1-3.1-2.4-5.5-4.1-7.4-1.7-1.8-3.7-3.2-6-4-2.3-.8-4.7-1.2-7.2-1.2H120.9c-.6 0-1.1.1-1.6.2-.1 8.5-.2 16.9-.3 25.1-.1 8.2-.1 16.5-.1 24.8 3 0 6-.3 9.2-.9 3.1-.6 6-1.8 8.6-3.6 2.6-1.8 4.7-4.5 6.4-7.9 1.7-3.4 2.5-8 2.5-13.7 0-4.5-.5-8.3-1.5-11.4z"/><linearGradient id="c" gradientUnits="userSpaceOnUse" x1="241.271" y1="234.798" x2="241.271" y2="108.143"><stop offset="0" stop-color="#212058"/><stop offset=".069" stop-color="#24235F"/><stop offset=".252" stop-color="#2A2B6F"/><stop offset=".437" stop-color="#2D2F7B"/><stop offset=".623" stop-color="#2F3282"/><stop offset=".812" stop-color="#2F3384"/></linearGradient><path fill="url(#c)" d="M291.1 220c-.7 2.5-1.2 5.1-1.4 7.5-9.6 4.9-21.7 7.3-36.2 7.3-10.3 0-19.5-1.4-27.6-4.4-8.1-2.9-15-7-20.6-12.3-5.6-5.3-9.9-11.5-12.9-18.7-3-7.2-4.4-15-4.4-23.4 0-12.3 1.9-22.8 5.8-31.3 3.9-8.6 9-15.6 15.5-21 6.4-5.4 13.9-9.3 22.5-11.8 8.5-2.5 17.5-3.7 26.8-3.7 3.1 0 6.3.2 9.8.7 3.4.5 6.8 1.1 9.9 1.9 3.2.8 6.2 1.7 9.2 2.8 2.9 1.1 5.4 2.2 7.4 3.4-1.2 3-2.1 5.9-2.8 9-.6 3-1.1 6.1-1.3 9.1h-2.5c-4.5-5.7-9.1-9.7-13.9-12.2-4.7-2.4-10.3-3.6-16.7-3.6-4.7 0-9.5 1.1-14.3 3.2-4.8 2.1-9.1 5.4-13.1 9.8-3.9 4.4-7.1 10-9.5 16.8-2.4 6.8-3.6 15-3.6 24.4 0 9.1 1.2 16.9 3.7 23.4s5.7 11.7 9.7 15.8c4 4.1 8.5 7.1 13.5 9 5 1.9 10.1 2.8 15.2 2.8 2.8 0 5.7-.3 8.7-1 3-.6 5.9-1.5 8.7-2.7 2.8-1.1 5.5-2.5 8.1-4.2 2.5-1.7 4.8-3.5 6.7-5.5l2.3 1.4c-1.2 2.4-2 4.9-2.7 7.5z"/><linearGradient id="d" gradientUnits="userSpaceOnUse" x1="373.695" y1="232.491" x2="373.695" y2="110.455"><stop offset="0" stop-color="#212058"/><stop offset=".069" stop-color="#24235F"/><stop offset=".252" stop-color="#2A2B6F"/><stop offset=".437" stop-color="#2D2F7B"/><stop offset=".623" stop-color="#2F3282"/><stop offset=".812" stop-color="#2F3384"/></linearGradient><path fill="url(#d)" d="M387.2 173.2c-4.5-.2-9-.3-13.5-.3s-9 .1-13.5.2-9 .3-13.5.5v10.1c0 9.8.1 18.6.4 26.2.2 7.6.6 15.1 1.1 22.5-2-.2-4.2-.4-6.6-.4h-16c-2.4 0-4.6.1-6.6.4.5-7.3.8-14.8 1.1-22.5.2-7.6.4-16.4.4-26.2v-24.2c0-9.8-.1-18.6-.4-26.2-.2-7.6-.6-15.3-1.1-23 2 .2 4.2.4 6.6.6 2.4.2 5 .3 8 .3s5.6-.1 8-.3c2.4-.2 4.6-.4 6.6-.6-.6 7.7-1 15.3-1.2 22.8-.2 7.5-.3 16.2-.3 26 3.1.1 6.8.2 11.1.3 4.3.1 9.7.1 16.1.1 6.4 0 11.6 0 15.6-.1s7.8-.1 11.2-.3c0-9.8-.1-18.5-.4-26-.2-7.5-.6-15.1-1.1-22.8 2 .2 4.2.4 6.6.6s5 .3 8 .3 5.6-.1 8-.3c2.4-.2 4.6-.4 6.6-.6-.5 7.7-.8 15.4-1.1 23-.2 7.6-.4 16.4-.4 26.2v24.2c0 9.8.1 18.6.4 26.2.2 7.6.6 15.1 1.1 22.5-2-.2-4.2-.4-6.6-.4h-16s-4.6.1-6.6.4c.5-7.3.8-14.8 1.1-22.5.2-7.6.4-16.4.4-26.2v-10.1c-4.5 0-9-.2-13.5-.4z"/><linearGradient id="e" gradientUnits="userSpaceOnUse" x1="506.836" y1="234.798" x2="506.836" y2="108.143"><stop offset="0" stop-color="#212058"/><stop offset=".069" stop-color="#24235F"/><stop offset=".252" stop-color="#2A2B6F"/><stop offset=".437" stop-color="#2D2F7B"/><stop offset=".623" stop-color="#2F3282"/><stop offset=".812" stop-color="#2F3384"/></linearGradient><path fill="url(#e)" d="M556.7 220c-.7 2.5-1.2 5.1-1.4 7.5-9.6 4.9-21.7 7.3-36.2 7.3-10.3 0-19.5-1.4-27.6-4.4-8.1-2.9-15-7-20.6-12.3-5.6-5.3-9.9-11.5-12.9-18.7-3-7.2-4.4-15-4.4-23.4 0-12.3 1.9-22.8 5.8-31.3 3.8-8.6 9-15.6 15.5-21 6.4-5.4 13.9-9.3 22.5-11.8 8.5-2.5 17.5-3.7 26.8-3.7 3.1 0 6.3.2 9.8.7 3.4.5 6.8 1.1 9.9 1.9 3.2.8 6.2 1.7 9.2 2.8 2.9 1.1 5.4 2.2 7.4 3.4-1.2 3-2.1 5.9-2.8 9-.6 3-1.1 6.1-1.3 9.1h-2.5c-4.5-5.7-9.1-9.7-13.9-12.2-4.7-2.4-10.3-3.6-16.7-3.6-4.7 0-9.5 1.1-14.3 3.2-4.8 2.1-9.1 5.4-13.1 9.8-3.9 4.4-7.1 10-9.5 16.8-2.4 6.8-3.6 15-3.6 24.4 0 9.1 1.2 16.9 3.7 23.4s5.7 11.7 9.7 15.8c4 4.1 8.5 7.1 13.5 9 5 1.9 10.1 2.8 15.2 2.8 2.8 0 5.7-.3 8.7-1 3-.6 5.9-1.5 8.7-2.7 2.8-1.1 5.5-2.5 8.1-4.2 2.5-1.7 4.8-3.5 6.7-5.5l2.3 1.4c-1.2 2.4-2 4.9-2.7 7.5z"/></g><g fill="#BE1E2D"><path d="M87.9 326.3c-.1-2.5-.2-5.1-.4-7.7.7.1 1.4.1 2.2.2.8.1 1.7.1 2.7.1 1.7 0 3.5 0 5.3-.1 1.9-.1 3.6-.1 5.3-.1 1.8 0 3.4.2 4.8.5 1.5.4 2.7.9 3.8 1.6 1.1.7 1.9 1.7 2.5 2.8.6 1.2.9 2.6.9 4.2s-.3 3-1 4.2c-.7 1.2-1.5 2.1-2.5 2.9-1 .8-2 1.4-3.1 1.8-1.1.4-2.1.7-3.1.9v.1c.9 0 2 .2 3.2.6 1.2.4 2.4 1 3.5 1.7 1.1.8 2 1.8 2.8 3 .8 1.2 1.2 2.7 1.2 4.5 0 2.1-.4 3.9-1.2 5.4-.8 1.5-1.8 2.7-3.1 3.7-1.3.9-2.7 1.6-4.4 2-1.7.4-3.4.6-5.1.6-1.6 0-3 0-4.4-.1-1.4 0-2.8-.1-4.3-.1h-3.3c-1.1 0-2 0-2.7.1.2-2.4.3-4.9.4-7.5.1-2.5.1-5.4.1-8.7v-8c.1-3.2 0-6.1-.1-8.6zm18-.1c-.2-.8-.6-1.6-1.1-2.2-.5-.6-1.2-1.1-2-1.5-.8-.4-1.8-.6-3-.6H98c-.3 0-.7.1-1.1.1-.1 1.5-.1 2.9-.2 4.4 0 1.5-.1 2.8-.1 3.8v6h2.7c.8 0 1.6-.2 2.5-.5.8-.3 1.5-.8 2.2-1.4.6-.6 1.1-1.4 1.5-2.3.4-.9.6-2 .6-3.3.1-.7 0-1.6-.2-2.5zm-1.1 15.6c-1.2-1.4-3-2-5.4-2h-2.5V356c.6 0 1.1.1 1.5.1h1.7c.9 0 1.7-.2 2.5-.5.8-.4 1.5-.9 2.1-1.6.6-.7 1.1-1.5 1.4-2.5.4-1 .5-2.1.5-3.4 0-2.9-.6-4.9-1.8-6.3zM122 338.9c.8-2 1.9-3.6 3.2-4.9 1.3-1.3 2.9-2.3 4.6-3 1.8-.7 3.6-1 5.4-1 4.6 0 8.2 1.3 10.7 3.9 2.5 2.6 3.8 6.1 3.8 10.6 0 2.4-.4 4.6-1.1 6.5-.7 1.9-1.7 3.6-3 4.9-1.3 1.4-2.8 2.4-4.6 3-1.8.7-3.7 1-5.9 1-1.8 0-3.5-.2-5.2-.7-1.7-.5-3.3-1.3-4.6-2.4-1.4-1.1-2.5-2.6-3.3-4.4-.8-1.8-1.3-4-1.3-6.7.1-2.5.5-4.8 1.3-6.8zm17.7-3.4c-.9-1.9-2.3-2.9-4.3-2.9-1.8 0-3.2 1.1-4.3 3.2-1 2.1-1.6 5.5-1.6 10 0 1.7.1 3.2.3 4.6.2 1.4.5 2.7 1 3.7s1 1.9 1.8 2.5c.7.6 1.6.9 2.7.9 3.8 0 5.7-4.6 5.7-13.9 0-3.4-.4-6.1-1.3-8.1zM160.5 331.1c1.9-.7 3.8-1.1 5.7-1.1 1.6 0 3 .2 4.3.5 1.3.4 2.5.9 3.4 1.7 1 .8 1.7 1.8 2.2 3 .5 1.2.8 2.7.8 4.4 0 2.5 0 4.9-.1 7-.1 2.1-.1 4.3-.1 6.4 0 .9.1 1.7.2 2.2.1.5.3.9.6 1.2.3.3.6.5 1.1.5.5.1 1 .1 1.6.1v1.4c-1.1.5-2.1.8-2.9 1.1-.8.2-1.6.4-2.5.4-1.5 0-2.6-.4-3.5-1.1-.9-.7-1.6-1.7-2.1-3.1-.9 1.3-2 2.3-3.2 3-1.2.7-2.7 1.1-4.5 1.1-1.5 0-2.8-.2-3.8-.6-1.1-.4-1.9-1-2.6-1.7-.7-.7-1.2-1.6-1.5-2.5-.3-.9-.5-1.9-.5-2.8 0-1.3.2-2.4.6-3.4.4-.9 1-1.8 1.8-2.4.8-.7 1.7-1.2 2.7-1.7 1.1-.5 2.3-.8 3.6-1.2 1.7-.4 3-.7 3.9-1 1-.3 1.7-.6 2.2-.9.5-.3.8-.6.9-1 .1-.4.2-.8.2-1.3 0-1.4-.5-2.6-1.5-3.6s-2.4-1.5-4.2-1.5c-.7 0-1.4.1-2.1.3-.7.2-1.4.4-2 .7-.7.3-1.2.7-1.8 1-.5.4-.9.8-1.2 1.2h-.4l-.8-3.5c1.8-1.1 3.6-2.1 5.5-2.8zm8.7 15.3v-2.3c-.8.5-1.7.9-2.6 1.2-.9.3-1.8.7-2.5 1.1-.8.5-1.4 1.1-1.9 1.9-.5.8-.7 1.9-.7 3.4s.3 2.6.9 3.3c.6.8 1.4 1.2 2.5 1.2 1.3 0 2.4-.5 3.2-1.5.8-1 1.2-2.4 1.2-4.4-.1-1.8-.1-3-.1-3.9zM192.9 338.1c1-2.7 2.3-4.7 3.7-6 1.5-1.3 3.2-1.9 5.2-1.9h.9c-.1.6-.2 1.2-.3 1.9-.1.7-.1 1.5-.1 2.4v2.9c0 .4 0 .7.1 1l-.5.5c-.4-.2-.8-.4-1.3-.6-.5-.2-1.1-.2-1.7-.2-1.8 0-3.2.6-4.2 1.7-1 1.2-1.5 2.5-1.5 4.1v2.4c0 2.4 0 4.7.1 6.8.1 2.1.2 4.2.4 6.1-.5-.1-1.1-.1-1.9-.1h-5c-.7 0-1.4 0-1.9.1.2-2 .3-4 .3-6.1.1-2.1.1-4.4.1-6.8v-2.4c0-2.4 0-4.7-.1-6.8-.1-2.1-.2-4.2-.3-6.4.7.1 1.3.1 2 .2s1.4.1 2 .1c.7 0 1.3 0 2-.1s1.4-.1 2-.2l-.2 7.2.2.2zM233.7 349.6c.1 3.2.2 6.4.4 9.6-.5-.1-1.2-.1-2-.1h-4.8c-.7 0-1.3 0-1.7.1 0-.1.1-.3.1-.8 0-.4.1-.9.1-1.5.1-.6.1-1.1.1-1.5 0-.5.1-.8.1-.9l-.1-.1c-.7 1.8-1.8 3.1-3.1 4.1-1.3 1-3.1 1.4-5.4 1.4-2 0-3.7-.4-5.1-1.2-1.4-.8-2.6-1.8-3.5-3.2-.9-1.4-1.6-3-2-4.8-.4-1.9-.7-3.8-.7-6 0-2.1.3-4.1.9-5.9.6-1.8 1.4-3.4 2.4-4.7 1-1.3 2.2-2.4 3.6-3.1 1.4-.7 2.9-1.1 4.5-1.1 1.8 0 3.4.4 4.8 1.2 1.4.8 2.4 1.9 3.1 3.1h.1c0-3.5 0-6.9-.1-10-.1-3.1-.2-6.4-.4-9.7.5.1 1.2.1 2 .2s1.6.1 2.5.1c.9 0 1.7 0 2.5-.1s1.4-.1 2-.2c-.2 3.3-.3 6.6-.4 9.8-.1 3.2-.1 6.8-.1 10.6v3.8c.1 4.1.1 7.7.2 10.9zm-18.3 1.2c.3 1.4.7 2.5 1.1 3.3.5.8 1 1.5 1.6 1.8.6.4 1.3.6 1.9.6 1.6 0 2.9-.9 4-2.7 1-1.8 1.6-4.9 1.6-9.1 0-3.7-.5-6.3-1.5-8-1-1.7-2.2-2.5-3.8-2.5-.6 0-1.3.2-1.9.5-.6.4-1.2 1-1.7 1.9-.5.9-.9 2.1-1.3 3.6-.3 1.5-.5 3.4-.5 5.6.1 1.9.2 3.6.5 5zM256.8 338.9c.8-2 1.9-3.6 3.2-4.9 1.3-1.3 2.9-2.3 4.6-3 1.8-.7 3.6-1 5.4-1 4.6 0 8.2 1.3 10.7 3.9 2.5 2.6 3.8 6.1 3.8 10.6 0 2.4-.4 4.6-1.1 6.5-.7 1.9-1.7 3.6-3 4.9-1.3 1.4-2.8 2.4-4.6 3-1.8.7-3.7 1-5.9 1-1.8 0-3.5-.2-5.2-.7-1.7-.5-3.3-1.3-4.6-2.4-1.4-1.1-2.5-2.6-3.3-4.4-.8-1.8-1.3-4-1.3-6.7.1-2.5.5-4.8 1.3-6.8zm17.7-3.4c-.9-1.9-2.3-2.9-4.3-2.9-1.8 0-3.2 1.1-4.3 3.2-1 2.1-1.6 5.5-1.6 10 0 1.7.1 3.2.3 4.6.2 1.4.5 2.7 1 3.7s1 1.9 1.8 2.5c.7.6 1.6.9 2.7.9 3.8 0 5.7-4.6 5.7-13.9 0-3.4-.4-6.1-1.3-8.1zM305.1 331.9c0 .2-.1.5-.1.8 0 .2 0 .5.1.7 0 .3.1.5.1.7l-5.6-.1v4.9c0 3.9 0 7.4.1 10.6.1 3.2.2 6.4.4 9.6-.5-.1-1.2-.1-2-.1h-5c-.8 0-1.4 0-2 .1.2-3.2.3-6.4.4-9.6.1-3.2.1-6.8.1-10.6v-4.8l-4.1.1c.1-.5.2-1 .2-1.5s-.1-1-.2-1.6l4.1.2c.4-2.4.9-4.6 1.5-6.7.6-2 1.4-3.8 2.3-5.3 1-1.5 2.2-2.7 3.6-3.5 1.5-.8 3.3-1.3 5.4-1.3.7 0 1.5.1 2.5.3-.1.6-.2 1.5-.2 2.6v5.2l-.7.2c-.8-.4-1.7-.8-2.7-1.2-1-.4-2-.5-3-.5-1.1 0-2 .2-2.6.6-.6.4-.9 1-.9 2 0 .9.3 2.1.8 3.5s1.2 2.8 2 4.2l5.6-.1c-.1.1-.1.4-.1.6zM326.7 326.3c-.1-2.5-.2-5.1-.4-7.7.7.1 1.4.1 2.2.2.8.1 1.7.1 2.7.1 1.3 0 2.8 0 4.4-.1 1.6-.1 3.7-.1 6.3-.1 3.4 0 6.5.3 9.3.9 2.8.6 5.2 1.6 7.2 3.1s3.6 3.4 4.7 5.9c1.1 2.5 1.7 5.6 1.7 9.3 0 3.3-.5 6.2-1.6 8.9-1.1 2.6-2.6 4.9-4.4 6.8-1.9 1.9-4 3.3-6.5 4.3s-5.1 1.5-7.9 1.5c-3 0-5.5 0-7.6-.1-2.1 0-3.9-.1-5.4-.1h-2.7c-.8 0-1.5 0-2.2.1.2-2.4.3-4.9.4-7.5.1-2.5.1-5.4.1-8.7v-8c-.2-3.4-.2-6.3-.3-8.8zm8.9 21v8.4c.6 0 1.3.1 2.1.1s1.9.1 3.1.1c4.5 0 8-1.5 10.6-4.6 2.6-3 3.9-7.6 3.9-13.8 0-2.4-.3-4.6-1-6.6-.6-1.9-1.6-3.6-2.7-4.9-1.2-1.4-2.6-2.4-4.3-3.1-1.7-.7-3.5-1.1-5.6-1.1-1.4 0-2.6 0-3.5.1-.9.1-1.8.1-2.7.2v25.2zM372.5 316.3c.9-.9 2-1.4 3.3-1.4 1.3 0 2.4.5 3.3 1.4.9.9 1.4 2 1.4 3.3s-.5 2.4-1.4 3.3c-.9.9-2 1.4-3.3 1.4-1.3 0-2.4-.5-3.3-1.4-.9-.9-1.4-2-1.4-3.3s.5-2.4 1.4-3.3zm-.8 20.8c-.1-2.1-.2-4.2-.4-6.4.6.1 1.2.1 2 .2.7.1 1.6.1 2.5.1 1.9 0 3.3-.1 4.4-.3-.2 2.1-.3 4.2-.4 6.4-.1 2.1-.1 4.4-.1 6.8v2.4c0 2.4 0 4.7.1 6.8.1 2.1.2 4.2.4 6.1-.5-.1-1.2-.1-1.9-.1h-5c-.7 0-1.4 0-2 .1.2-2 .3-4 .4-6.1.1-2.1.1-4.4.1-6.8v-2.4c0-2.4 0-4.6-.1-6.8zM395.6 338.1c1-2.7 2.3-4.7 3.7-6 1.5-1.3 3.2-1.9 5.2-1.9h.9c-.1.6-.2 1.2-.3 1.9-.1.7-.1 1.5-.1 2.4v2.9c0 .4 0 .7.1 1l-.5.5c-.4-.2-.8-.4-1.3-.6-.5-.2-1.1-.2-1.7-.2-1.8 0-3.2.6-4.2 1.7-1 1.2-1.5 2.5-1.5 4.1v2.4c0 2.4 0 4.7.1 6.8.1 2.1.2 4.2.4 6.1-.5-.1-1.1-.1-1.9-.1h-5s-1.4 0-1.9.1c.2-2 .3-4 .3-6.1.1-2.1.1-4.4.1-6.8v-2.4c0-2.4 0-4.7-.1-6.8-.1-2.1-.2-4.2-.3-6.4.7.1 1.3.1 2 .2s1.4.1 2 .1 1.3 0 2-.1 1.4-.1 2-.2l-.2 7.2.2.2zM418.2 349.5c.3 1.4.8 2.6 1.4 3.6.7 1 1.5 1.8 2.5 2.4 1 .6 2.2.9 3.5.9 2.7 0 5.1-.9 7.3-2.7l.7.5-1.3 3.3c-1 .7-2.2 1.4-3.5 1.8-1.4.5-3.2.7-5.4.7-1.9 0-3.8-.3-5.5-.8-1.7-.5-3.3-1.4-4.6-2.6-1.3-1.2-2.4-2.8-3.1-4.6-.8-1.9-1.2-4.1-1.2-6.7 0-2.6.3-4.8 1-6.7.7-1.9 1.6-3.5 2.9-4.7 1.2-1.3 2.7-2.2 4.3-2.8 1.7-.6 3.5-.9 5.5-.9 3.9 0 6.9 1.1 9 3.4 2.1 2.3 3.1 5.5 3.1 9.7v1.2c0 .4 0 .6-.1.7h-17c0 1.5.2 3 .5 4.3zm7.5-14.2c-.7-1.8-1.7-2.7-3.3-2.7-.9 0-1.6.3-2.2.9-.6.6-1.1 1.4-1.4 2.3-.4.9-.6 2-.8 3.1-.2 1.2-.3 2.3-.3 3.5h9.1c-.1-2.9-.4-5.3-1.1-7.1zM459.4 334.7c-.9-1.1-2.3-1.6-4.1-1.6-2.4 0-4.1 1.1-5.3 3.2-1.2 2.1-1.8 5.1-1.8 9 0 3.6.7 6.3 2.2 8.2 1.5 1.9 3.7 2.9 6.6 2.9 1.2 0 2.4-.3 3.5-.9 1.1-.6 2-1.2 2.5-1.9l.7.6c-.3.6-.5 1.1-.7 1.7l-.6 1.8c-.9.7-2 1.2-3.3 1.7-1.3.5-2.9.7-4.7.7-2.9 0-5.3-.4-7.3-1.2-2-.8-3.6-2-4.8-3.4-1.2-1.4-2.1-3-2.6-4.8-.5-1.8-.8-3.6-.8-5.4 0-2.2.4-4.2 1.1-6 .7-1.9 1.8-3.4 3.1-4.8 1.4-1.3 3-2.4 4.9-3.2 1.9-.8 4.1-1.2 6.4-1.2 2.2 0 4.1.3 5.7.8 1.6.5 3 1.2 4.5 2-.5.8-.9 1.8-1.3 2.9-.4 1.1-.7 2.2-.9 3.3H461c-.1-1.9-.7-3.4-1.6-4.4zM484.6 332.7c0 .5.1 1 .2 1.5l-5.2-.1c-.1.9-.1 2-.2 3.1-.1 1.2-.1 2.4-.1 3.6 0 1.2 0 2.4-.1 3.5v2.9c0 2.1 0 3.7.1 5 .1 1.3.3 2.2.5 2.9.2.7.6 1.1 1 1.4.4.2 1 .4 1.7.4s1.3 0 1.7-.1c.4-.1.7-.2 1.1-.4v2.4c-.8.4-1.8.7-3 .9-1.2.3-2.3.4-3.5.4-5 0-7.5-3-7.5-9 0-1.1 0-2.4.1-3.9 0-1.4.1-2.9.1-4.4.1-1.5.1-3 .1-4.5s.1-2.8.1-4.1l-4.1.1c.1-.5.2-1 .2-1.5s-.1-1-.2-1.6l4.1.2c0-1.2 0-2.4-.1-3.4 0-1.1-.1-2.3-.2-3.8 1.4-.6 2.7-1.1 4.1-1.7 1.3-.6 2.7-1.3 4-1.9l.6.4c-.1.6-.1 1.4-.2 2.2-.1.8-.1 1.7-.2 2.7-.1.9-.1 1.9-.1 2.8v2.7l5.2-.1c-.1.4-.2.9-.2 1.4zM489 338.9c.8-2 1.9-3.6 3.2-4.9 1.3-1.3 2.9-2.3 4.6-3 1.8-.7 3.6-1 5.4-1 4.6 0 8.2 1.3 10.7 3.9 2.5 2.6 3.8 6.1 3.8 10.6 0 2.4-.4 4.6-1.1 6.5-.7 1.9-1.7 3.6-3 4.9-1.3 1.4-2.8 2.4-4.6 3-1.8.7-3.7 1-5.9 1-1.8 0-3.5-.2-5.2-.7-1.7-.5-3.3-1.3-4.6-2.4-1.4-1.1-2.5-2.6-3.3-4.4-.8-1.8-1.3-4-1.3-6.7.1-2.5.5-4.8 1.3-6.8zm17.7-3.4c-.9-1.9-2.3-2.9-4.3-2.9-1.8 0-3.2 1.1-4.3 3.2-1 2.1-1.6 5.5-1.6 10 0 1.7.1 3.2.3 4.6.2 1.4.5 2.7 1 3.7s1 1.9 1.8 2.5c.7.6 1.6.9 2.7.9 3.8 0 5.7-4.6 5.7-13.9 0-3.4-.4-6.1-1.3-8.1zM530.3 338.1c1-2.7 2.3-4.7 3.7-6 1.5-1.3 3.2-1.9 5.2-1.9h.9c-.1.6-.2 1.2-.3 1.9-.1.7-.1 1.5-.1 2.4v2.9c0 .4 0 .7.1 1l-.5.5c-.4-.2-.8-.4-1.3-.6-.5-.2-1.1-.2-1.7-.2-1.8 0-3.2.6-4.2 1.7-1 1.2-1.5 2.5-1.5 4.1v2.4c0 2.4 0 4.7.1 6.8.1 2.1.2 4.2.4 6.1-.5-.1-1.1-.1-1.9-.1h-5c-.7 0-1.4 0-1.9.1.2-2 .3-4 .3-6.1.1-2.1.1-4.4.1-6.8v-2.4c0-2.4 0-4.7-.1-6.8-.1-2.1-.2-4.2-.3-6.4.7.1 1.3.1 2 .2s1.4.1 2 .1c.7 0 1.3 0 2-.1s1.4-.1 2-.2l-.2 7.2.2.2zM546.7 353.8c.4.6.8 1.1 1.4 1.5.6.5 1.2.8 2 1.1.8.3 1.7.4 2.7.4 1.4 0 2.4-.4 3.2-1.1.7-.7 1.1-1.5 1.1-2.3 0-.9-.3-1.6-1-2.2-.7-.6-1.5-1.1-2.5-1.5-1-.5-2.1-.9-3.3-1.4-1.2-.5-2.3-1.1-3.3-1.8s-1.8-1.6-2.5-2.7-1-2.5-1-4.3c0-1.7.3-3.1.9-4.3.6-1.2 1.4-2.2 2.4-3 1-.8 2.1-1.3 3.3-1.7 1.2-.4 2.5-.6 3.7-.6 1.7 0 3.1.2 4.4.7 1.3.5 2.6 1.2 3.9 2.1-.4.8-.7 1.6-.9 2.5-.2.9-.4 1.8-.5 2.7H559c-.1-.5-.3-1-.6-1.6-.3-.6-.7-1.1-1.1-1.6-.5-.5-1-.9-1.7-1.3-.7-.3-1.5-.5-2.4-.5-1.2 0-2.2.3-3 .9-.8.6-1.2 1.5-1.2 2.5 0 .9.3 1.7 1 2.3.7.6 1.5 1.1 2.6 1.5 1 .4 2.1.9 3.4 1.3 1.2.4 2.3 1 3.4 1.7 1 .7 1.9 1.6 2.6 2.7.7 1.1 1 2.5 1 4.3 0 1.7-.3 3.2-.9 4.5-.6 1.2-1.5 2.3-2.5 3.1-1.1.8-2.3 1.4-3.6 1.7-1.4.4-2.8.5-4.3.5-1.8 0-3.4-.3-4.8-.8s-2.5-1-3.4-1.6c.5-1.9.8-3.8.9-5.7h1.5c.1.8.4 1.4.8 2z"/></g></svg>