<?xml version="1.0" encoding="utf-8"?>
<!-- Generator: Adobe Illustrator 18.1.1, SVG Export Plug-In . SVG Version: 6.00 Build 0)  -->
<svg version="1.1" id="Layer_1" xmlns="http://www.w3.org/2000/svg" xmlns:xlink="http://www.w3.org/1999/xlink" x="0px" y="0px"
	 viewBox="0 0 647.5 360" enable-background="new 0 0 647.5 360" xml:space="preserve">
<g>
	<g>
		<g>
			<linearGradient id="SVGID_1_" gradientUnits="userSpaceOnUse" x1="323.7406" y1="302.9201" x2="323.7406" y2="-3.0303">
				<stop  offset="0" style="stop-color:#6D4C39"/>
				<stop  offset="1" style="stop-color:#8C7167"/>
			</linearGradient>
			<path fill="url(#SVGID_1_)" d="M323.7,0C145.2,0,0,77.2,0,172.1c0,47.5,39.1,93.7,107.5,126.9c0,0,0,0,0,0
				c-57.9-30.4-75.3-79.5-75.3-122.8c0-85.2,125.3-149.4,291.5-149.4c166.2,0,291.5,64.2,291.5,149.4c0,43.3-18.4,92.5-76.3,122.9
				c0.1,0.1,0.3,0.2,0.4,0.3c68.8-33.3,108.2-79.6,108.2-127.3C647.5,77.2,502.3,0,323.7,0z"/>
		</g>
		<g>
			<linearGradient id="SVGID_2_" gradientUnits="userSpaceOnUse" x1="132.4744" y1="232.4906" x2="132.4744" y2="110.4546">
				<stop  offset="0" style="stop-color:#212058"/>
				<stop  offset="6.925429e-02" style="stop-color:#24235F"/>
				<stop  offset="0.2522" style="stop-color:#2A2B6F"/>
				<stop  offset="0.437" style="stop-color:#2D2F7B"/>
				<stop  offset="0.6229" style="stop-color:#2F3282"/>
				<stop  offset="0.8118" style="stop-color:#2F3384"/>
			</linearGradient>
			<path fill="url(#SVGID_2_)" d="M92.3,133.5c-0.2-7.6-0.6-15.3-1.1-23c2,0.2,4.2,0.4,6.6,0.6c2.4,0.2,5,0.3,8,0.3
				c4.1,0,8.4-0.1,12.9-0.4c4.4-0.3,8.8-0.4,13.1-0.4c8.4,0,15,0.6,19.7,1.9c4.7,1.2,8.5,3,11.2,5.4c3.8,3.1,6.6,6.5,8.3,10.3
				c1.8,3.8,2.7,8.4,2.7,13.7c0,6.7-1.1,12.6-3.4,17.4c-2.3,4.9-5.4,8.8-9.5,11.8c-4.1,3-8.9,5.2-14.5,6.7
				c-5.6,1.4-11.7,2.1-18.3,2.1H119c0,8.9,0.1,17.7,0.3,26.6c0.2,8.8,0.6,17.6,1.2,26.2c-2-0.2-4.2-0.4-6.6-0.4s-5,0-8,0
				c-3,0-5.6,0-8,0c-2.4,0-4.6,0.1-6.6,0.4c0.5-7.3,0.8-14.8,1.1-22.5c0.2-7.6,0.4-16.4,0.4-26.2v-24.2
				C92.7,149.8,92.6,141.1,92.3,133.5z M144.1,133.2c-1-3.1-2.4-5.5-4.1-7.4c-1.7-1.8-3.7-3.2-6-4c-2.3-0.8-4.7-1.2-7.2-1.2h-4.1
				c-0.6,0-1.2,0-1.8,0c-0.6,0-1.1,0.1-1.6,0.2c-0.1,8.5-0.2,16.9-0.3,25.1c-0.1,8.2-0.1,16.5-0.1,24.8c3,0,6-0.3,9.2-0.9
				c3.1-0.6,6-1.8,8.6-3.6c2.6-1.8,4.7-4.5,6.4-7.9c1.7-3.4,2.5-8,2.5-13.7C145.6,140.1,145.1,136.3,144.1,133.2z"/>
			<linearGradient id="SVGID_3_" gradientUnits="userSpaceOnUse" x1="241.2711" y1="234.7984" x2="241.2711" y2="108.1431">
				<stop  offset="0" style="stop-color:#212058"/>
				<stop  offset="6.925429e-02" style="stop-color:#24235F"/>
				<stop  offset="0.2522" style="stop-color:#2A2B6F"/>
				<stop  offset="0.437" style="stop-color:#2D2F7B"/>
				<stop  offset="0.6229" style="stop-color:#2F3282"/>
				<stop  offset="0.8118" style="stop-color:#2F3384"/>
			</linearGradient>
			<path fill="url(#SVGID_3_)" d="M291.1,220c-0.7,2.5-1.2,5.1-1.4,7.5c-9.6,4.9-21.7,7.3-36.2,7.3c-10.3,0-19.5-1.4-27.6-4.4
				c-8.1-2.9-15-7-20.6-12.3c-5.6-5.3-9.9-11.5-12.9-18.7c-3-7.2-4.4-15-4.4-23.4c0-12.3,1.9-22.8,5.8-31.3c3.9-8.6,9-15.6,15.5-21
				c6.4-5.4,13.9-9.3,22.5-11.8c8.5-2.5,17.5-3.7,26.8-3.7c3.1,0,6.3,0.2,9.8,0.7c3.4,0.5,6.8,1.1,9.9,1.9c3.2,0.8,6.2,1.7,9.2,2.8
				c2.9,1.1,5.4,2.2,7.4,3.4c-1.2,3-2.1,5.9-2.8,9c-0.6,3-1.1,6.1-1.3,9.1h-2.5c-4.5-5.7-9.1-9.7-13.9-12.2
				c-4.7-2.4-10.3-3.6-16.7-3.6c-4.7,0-9.5,1.1-14.3,3.2c-4.8,2.1-9.1,5.4-13.1,9.8c-3.9,4.4-7.1,10-9.5,16.8
				c-2.4,6.8-3.6,15-3.6,24.4c0,9.1,1.2,16.9,3.7,23.4c2.5,6.5,5.7,11.7,9.7,15.8c4,4.1,8.5,7.1,13.5,9c5,1.9,10.1,2.8,15.2,2.8
				c2.8,0,5.7-0.3,8.7-1c3-0.6,5.9-1.5,8.7-2.7c2.8-1.1,5.5-2.5,8.1-4.2c2.5-1.7,4.8-3.5,6.7-5.5l2.3,1.4
				C292.6,214.9,291.8,217.4,291.1,220z"/>
			<linearGradient id="SVGID_4_" gradientUnits="userSpaceOnUse" x1="373.6946" y1="232.4906" x2="373.6946" y2="110.4546">
				<stop  offset="0" style="stop-color:#212058"/>
				<stop  offset="6.925429e-02" style="stop-color:#24235F"/>
				<stop  offset="0.2522" style="stop-color:#2A2B6F"/>
				<stop  offset="0.437" style="stop-color:#2D2F7B"/>
				<stop  offset="0.6229" style="stop-color:#2F3282"/>
				<stop  offset="0.8118" style="stop-color:#2F3384"/>
			</linearGradient>
			<path fill="url(#SVGID_4_)" d="M387.2,173.2c-4.5-0.2-9-0.3-13.5-0.3c-4.5,0-9,0.1-13.5,0.2c-4.5,0.1-9,0.3-13.5,0.5v10.1
				c0,9.8,0.1,18.6,0.4,26.2c0.2,7.6,0.6,15.1,1.1,22.5c-2-0.2-4.2-0.4-6.6-0.4c-2.4,0-5,0-8,0c-3,0-5.6,0-8,0
				c-2.4,0-4.6,0.1-6.6,0.4c0.5-7.3,0.8-14.8,1.1-22.5c0.2-7.6,0.4-16.4,0.4-26.2v-24.2c0-9.8-0.1-18.6-0.4-26.2
				c-0.2-7.6-0.6-15.3-1.1-23c2,0.2,4.2,0.4,6.6,0.6c2.4,0.2,5,0.3,8,0.3c3,0,5.6-0.1,8-0.3c2.4-0.2,4.6-0.4,6.6-0.6
				c-0.6,7.7-1,15.3-1.2,22.8c-0.2,7.5-0.3,16.2-0.3,26c3.1,0.1,6.8,0.2,11.1,0.3c4.3,0.1,9.7,0.1,16.1,0.1c6.4,0,11.6,0,15.6-0.1
				c4-0.1,7.8-0.1,11.2-0.3c0-9.8-0.1-18.5-0.4-26c-0.2-7.5-0.6-15.1-1.1-22.8c2,0.2,4.2,0.4,6.6,0.6s5,0.3,8,0.3c3,0,5.6-0.1,8-0.3
				c2.4-0.2,4.6-0.4,6.6-0.6c-0.5,7.7-0.8,15.4-1.1,23c-0.2,7.6-0.4,16.4-0.4,26.2v24.2c0,9.8,0.1,18.6,0.4,26.2
				c0.2,7.6,0.6,15.1,1.1,22.5c-2-0.2-4.2-0.4-6.6-0.4c-2.4,0-5,0-8,0c-3,0-5.6,0-8,0s-4.6,0.1-6.6,0.4c0.5-7.3,0.8-14.8,1.1-22.5
				c0.2-7.6,0.4-16.4,0.4-26.2v-10.1C396.2,173.6,391.7,173.4,387.2,173.2z"/>
			<linearGradient id="SVGID_5_" gradientUnits="userSpaceOnUse" x1="506.836" y1="234.7984" x2="506.836" y2="108.1431">
				<stop  offset="0" style="stop-color:#212058"/>
				<stop  offset="6.925429e-02" style="stop-color:#24235F"/>
				<stop  offset="0.2522" style="stop-color:#2A2B6F"/>
				<stop  offset="0.437" style="stop-color:#2D2F7B"/>
				<stop  offset="0.6229" style="stop-color:#2F3282"/>
				<stop  offset="0.8118" style="stop-color:#2F3384"/>
			</linearGradient>
			<path fill="url(#SVGID_5_)" d="M556.7,220c-0.7,2.5-1.2,5.1-1.4,7.5c-9.6,4.9-21.7,7.3-36.2,7.3c-10.3,0-19.5-1.4-27.6-4.4
				c-8.1-2.9-15-7-20.6-12.3c-5.6-5.3-9.9-11.5-12.9-18.7c-3-7.2-4.4-15-4.4-23.4c0-12.3,1.9-22.8,5.8-31.3c3.8-8.6,9-15.6,15.5-21
				c6.4-5.4,13.9-9.3,22.5-11.8c8.5-2.5,17.5-3.7,26.8-3.7c3.1,0,6.3,0.2,9.8,0.7c3.4,0.5,6.8,1.1,9.9,1.9c3.2,0.8,6.2,1.7,9.2,2.8
				c2.9,1.1,5.4,2.2,7.4,3.4c-1.2,3-2.1,5.9-2.8,9c-0.6,3-1.1,6.1-1.3,9.1h-2.5c-4.5-5.7-9.1-9.7-13.9-12.2
				c-4.7-2.4-10.3-3.6-16.7-3.6c-4.7,0-9.5,1.1-14.3,3.2c-4.8,2.1-9.1,5.4-13.1,9.8c-3.9,4.4-7.1,10-9.5,16.8
				c-2.4,6.8-3.6,15-3.6,24.4c0,9.1,1.2,16.9,3.7,23.4c2.5,6.5,5.7,11.7,9.7,15.8c4,4.1,8.5,7.1,13.5,9c5,1.9,10.1,2.8,15.2,2.8
				c2.8,0,5.7-0.3,8.7-1c3-0.6,5.9-1.5,8.7-2.7c2.8-1.1,5.5-2.5,8.1-4.2c2.5-1.7,4.8-3.5,6.7-5.5l2.3,1.4
				C558.2,214.9,557.4,217.4,556.7,220z"/>
		</g>
	</g>
	<g>
		<path fill="#BE1E2D" d="M87.9,326.3c-0.1-2.5-0.2-5.1-0.4-7.7c0.7,0.1,1.4,0.1,2.2,0.2c0.8,0.1,1.7,0.1,2.7,0.1
			c1.7,0,3.5,0,5.3-0.1c1.9-0.1,3.6-0.1,5.3-0.1c1.8,0,3.4,0.2,4.8,0.5c1.5,0.4,2.7,0.9,3.8,1.6c1.1,0.7,1.9,1.7,2.5,2.8
			c0.6,1.2,0.9,2.6,0.9,4.2c0,1.6-0.3,3-1,4.2c-0.7,1.2-1.5,2.1-2.5,2.9c-1,0.8-2,1.4-3.1,1.8c-1.1,0.4-2.1,0.7-3.1,0.9v0.1
			c0.9,0,2,0.2,3.2,0.6c1.2,0.4,2.4,1,3.5,1.7c1.1,0.8,2,1.8,2.8,3c0.8,1.2,1.2,2.7,1.2,4.5c0,2.1-0.4,3.9-1.2,5.4
			c-0.8,1.5-1.8,2.7-3.1,3.7c-1.3,0.9-2.7,1.6-4.4,2c-1.7,0.4-3.4,0.6-5.1,0.6c-1.6,0-3,0-4.4-0.1c-1.4,0-2.8-0.1-4.3-0.1
			c-1.1,0-2.2,0-3.3,0c-1.1,0-2,0-2.7,0.1c0.2-2.4,0.3-4.9,0.4-7.5c0.1-2.5,0.1-5.4,0.1-8.7v-8C88.1,331.7,88,328.8,87.9,326.3z
			 M105.9,326.2c-0.2-0.8-0.6-1.6-1.1-2.2c-0.5-0.6-1.2-1.1-2-1.5c-0.8-0.4-1.8-0.6-3-0.6c-0.9,0-1.5,0-1.8,0
			c-0.3,0-0.7,0.1-1.1,0.1c-0.1,1.5-0.1,2.9-0.2,4.4c0,1.5-0.1,2.8-0.1,3.8c0,1.1,0,2.1,0,3c0,1,0,2,0,3h2.7c0.8,0,1.6-0.2,2.5-0.5
			c0.8-0.3,1.5-0.8,2.2-1.4c0.6-0.6,1.1-1.4,1.5-2.3c0.4-0.9,0.6-2,0.6-3.3C106.2,328,106.1,327.1,105.9,326.2z M104.8,341.8
			c-1.2-1.4-3-2-5.4-2c-0.6,0-1,0-1.4,0c-0.4,0-0.8,0-1.1,0c0,0.8,0,1.7,0,2.6c0,0.9,0,1.9,0,3.2c0,0.9,0,1.9,0,2.9c0,1,0,2,0,2.9
			c0,0.9,0,1.8,0,2.6c0,0.8,0,1.4,0,2c0.6,0,1.1,0.1,1.5,0.1c0.5,0,1,0,1.7,0c0.9,0,1.7-0.2,2.5-0.5c0.8-0.4,1.5-0.9,2.1-1.6
			c0.6-0.7,1.1-1.5,1.4-2.5c0.4-1,0.5-2.1,0.5-3.4C106.6,345.2,106,343.2,104.8,341.8z"/>
		<path fill="#BE1E2D" d="M122,338.9c0.8-2,1.9-3.6,3.2-4.9c1.3-1.3,2.9-2.3,4.6-3c1.8-0.7,3.6-1,5.4-1c4.6,0,8.2,1.3,10.7,3.9
			c2.5,2.6,3.8,6.1,3.8,10.6c0,2.4-0.4,4.6-1.1,6.5c-0.7,1.9-1.7,3.6-3,4.9c-1.3,1.4-2.8,2.4-4.6,3c-1.8,0.7-3.7,1-5.9,1
			c-1.8,0-3.5-0.2-5.2-0.7c-1.7-0.5-3.3-1.3-4.6-2.4c-1.4-1.1-2.5-2.6-3.3-4.4c-0.8-1.8-1.3-4-1.3-6.7
			C120.8,343.2,121.2,340.9,122,338.9z M139.7,335.5c-0.9-1.9-2.3-2.9-4.3-2.9c-1.8,0-3.2,1.1-4.3,3.2c-1,2.1-1.6,5.5-1.6,10
			c0,1.7,0.1,3.2,0.3,4.6c0.2,1.4,0.5,2.7,1,3.7c0.5,1,1,1.9,1.8,2.5c0.7,0.6,1.6,0.9,2.7,0.9c3.8,0,5.7-4.6,5.7-13.9
			C141,340.2,140.6,337.5,139.7,335.5z"/>
		<path fill="#BE1E2D" d="M160.5,331.1c1.9-0.7,3.8-1.1,5.7-1.1c1.6,0,3,0.2,4.3,0.5c1.3,0.4,2.5,0.9,3.4,1.7c1,0.8,1.7,1.8,2.2,3
			c0.5,1.2,0.8,2.7,0.8,4.4c0,2.5,0,4.9-0.1,7c-0.1,2.1-0.1,4.3-0.1,6.4c0,0.9,0.1,1.7,0.2,2.2c0.1,0.5,0.3,0.9,0.6,1.2
			c0.3,0.3,0.6,0.5,1.1,0.5c0.5,0.1,1,0.1,1.6,0.1v1.4c-1.1,0.5-2.1,0.8-2.9,1.1c-0.8,0.2-1.6,0.4-2.5,0.4c-1.5,0-2.6-0.4-3.5-1.1
			c-0.9-0.7-1.6-1.7-2.1-3.1c-0.9,1.3-2,2.3-3.2,3c-1.2,0.7-2.7,1.1-4.5,1.1c-1.5,0-2.8-0.2-3.8-0.6c-1.1-0.4-1.9-1-2.6-1.7
			c-0.7-0.7-1.2-1.6-1.5-2.5c-0.3-0.9-0.5-1.9-0.5-2.8c0-1.3,0.2-2.4,0.6-3.4c0.4-0.9,1-1.8,1.8-2.4c0.8-0.7,1.7-1.2,2.7-1.7
			c1.1-0.5,2.3-0.8,3.6-1.2c1.7-0.4,3-0.7,3.9-1c1-0.3,1.7-0.6,2.2-0.9c0.5-0.3,0.8-0.6,0.9-1c0.1-0.4,0.2-0.8,0.2-1.3
			c0-1.4-0.5-2.6-1.5-3.6c-1-1-2.4-1.5-4.2-1.5c-0.7,0-1.4,0.1-2.1,0.3c-0.7,0.2-1.4,0.4-2,0.7c-0.7,0.3-1.2,0.7-1.8,1
			c-0.5,0.4-0.9,0.8-1.2,1.2h-0.4l-0.8-3.5C156.8,332.8,158.6,331.8,160.5,331.1z M169.2,346.4c0-0.9,0-1.7,0-2.3
			c-0.8,0.5-1.7,0.9-2.6,1.2c-0.9,0.3-1.8,0.7-2.5,1.1c-0.8,0.5-1.4,1.1-1.9,1.9c-0.5,0.8-0.7,1.9-0.7,3.4c0,1.5,0.3,2.6,0.9,3.3
			c0.6,0.8,1.4,1.2,2.5,1.2c1.3,0,2.4-0.5,3.2-1.5c0.8-1,1.2-2.4,1.2-4.4C169.2,348.5,169.2,347.3,169.2,346.4z"/>
		<path fill="#BE1E2D" d="M192.9,338.1c1-2.7,2.3-4.7,3.7-6c1.5-1.3,3.2-1.9,5.2-1.9c0.2,0,0.4,0,0.5,0c0.1,0,0.3,0,0.4,0
			c-0.1,0.6-0.2,1.2-0.3,1.9c-0.1,0.7-0.1,1.5-0.1,2.4v1.9c0,0.3,0,0.7,0,1c0,0.4,0,0.7,0.1,1l-0.5,0.5c-0.4-0.2-0.8-0.4-1.3-0.6
			c-0.5-0.2-1.1-0.2-1.7-0.2c-1.8,0-3.2,0.6-4.2,1.7c-1,1.2-1.5,2.5-1.5,4.1v2.4c0,2.4,0,4.7,0.1,6.8c0.1,2.1,0.2,4.2,0.4,6.1
			c-0.5-0.1-1.1-0.1-1.9-0.1c-0.8,0-1.6,0-2.5,0c-0.9,0-1.7,0-2.5,0c-0.7,0-1.4,0-1.9,0.1c0.2-2,0.3-4,0.3-6.1
			c0.1-2.1,0.1-4.4,0.1-6.8v-2.4c0-2.4,0-4.7-0.1-6.8c-0.1-2.1-0.2-4.2-0.3-6.4c0.7,0.1,1.3,0.1,2,0.2c0.7,0.1,1.4,0.1,2,0.1
			c0.7,0,1.3,0,2-0.1c0.7-0.1,1.4-0.1,2-0.2l-0.2,7.2L192.9,338.1z"/>
		<path fill="#BE1E2D" d="M233.7,349.6c0.1,3.2,0.2,6.4,0.4,9.6c-0.5-0.1-1.2-0.1-2-0.1c-0.8,0-1.6,0-2.5,0c-0.8,0-1.5,0-2.3,0
			c-0.7,0-1.3,0-1.7,0.1c0-0.1,0.1-0.3,0.1-0.8c0-0.4,0.1-0.9,0.1-1.5c0.1-0.6,0.1-1.1,0.1-1.5c0-0.5,0.1-0.8,0.1-0.9l-0.1-0.1
			c-0.7,1.8-1.8,3.1-3.1,4.1c-1.3,1-3.1,1.4-5.4,1.4c-2,0-3.7-0.4-5.1-1.2c-1.4-0.8-2.6-1.8-3.5-3.2c-0.9-1.4-1.6-3-2-4.8
			c-0.4-1.9-0.7-3.8-0.7-6c0-2.1,0.3-4.1,0.9-5.9c0.6-1.8,1.4-3.4,2.4-4.7c1-1.3,2.2-2.4,3.6-3.1c1.4-0.7,2.9-1.1,4.5-1.1
			c1.8,0,3.4,0.4,4.8,1.2c1.4,0.8,2.4,1.9,3.1,3.1h0.1c0-3.5,0-6.9-0.1-10c-0.1-3.1-0.2-6.4-0.4-9.7c0.5,0.1,1.2,0.1,2,0.2
			c0.8,0.1,1.6,0.1,2.5,0.1c0.9,0,1.7,0,2.5-0.1c0.8-0.1,1.4-0.1,2-0.2c-0.2,3.3-0.3,6.6-0.4,9.8c-0.1,3.2-0.1,6.8-0.1,10.6v3.8
			C233.6,342.8,233.6,346.4,233.7,349.6z M215.4,350.8c0.3,1.4,0.7,2.5,1.1,3.3c0.5,0.8,1,1.5,1.6,1.8c0.6,0.4,1.3,0.6,1.9,0.6
			c1.6,0,2.9-0.9,4-2.7c1-1.8,1.6-4.9,1.6-9.1c0-3.7-0.5-6.3-1.5-8c-1-1.7-2.2-2.5-3.8-2.5c-0.6,0-1.3,0.2-1.9,0.5
			c-0.6,0.4-1.2,1-1.7,1.9c-0.5,0.9-0.9,2.1-1.3,3.6c-0.3,1.5-0.5,3.4-0.5,5.6C215,347.7,215.1,349.4,215.4,350.8z"/>
		<path fill="#BE1E2D" d="M256.8,338.9c0.8-2,1.9-3.6,3.2-4.9c1.3-1.3,2.9-2.3,4.6-3c1.8-0.7,3.6-1,5.4-1c4.6,0,8.2,1.3,10.7,3.9
			c2.5,2.6,3.8,6.1,3.8,10.6c0,2.4-0.4,4.6-1.1,6.5c-0.7,1.9-1.7,3.6-3,4.9c-1.3,1.4-2.8,2.4-4.6,3c-1.8,0.7-3.7,1-5.9,1
			c-1.8,0-3.5-0.2-5.2-0.7c-1.7-0.5-3.3-1.3-4.6-2.4c-1.4-1.1-2.5-2.6-3.3-4.4c-0.8-1.8-1.3-4-1.3-6.7
			C255.6,343.2,256,340.9,256.8,338.9z M274.5,335.5c-0.9-1.9-2.3-2.9-4.3-2.9c-1.8,0-3.2,1.1-4.3,3.2c-1,2.1-1.6,5.5-1.6,10
			c0,1.7,0.1,3.2,0.3,4.6c0.2,1.4,0.5,2.7,1,3.7c0.5,1,1,1.9,1.8,2.5c0.7,0.6,1.6,0.9,2.7,0.9c3.8,0,5.7-4.6,5.7-13.9
			C275.8,340.2,275.4,337.5,274.5,335.5z"/>
		<path fill="#BE1E2D" d="M305.1,331.9c0,0.2-0.1,0.5-0.1,0.8c0,0.2,0,0.5,0.1,0.7c0,0.3,0.1,0.5,0.1,0.7l-5.6-0.1v4.9
			c0,3.9,0,7.4,0.1,10.6c0.1,3.2,0.2,6.4,0.4,9.6c-0.5-0.1-1.2-0.1-2-0.1c-0.8,0-1.6,0-2.5,0c-0.9,0-1.7,0-2.5,0c-0.8,0-1.4,0-2,0.1
			c0.2-3.2,0.3-6.4,0.4-9.6c0.1-3.2,0.1-6.8,0.1-10.6v-4.8l-4.1,0.1c0.1-0.5,0.2-1,0.2-1.5c0-0.5-0.1-1-0.2-1.6l4.1,0.2
			c0.4-2.4,0.9-4.6,1.5-6.7c0.6-2,1.4-3.8,2.3-5.3c1-1.5,2.2-2.7,3.6-3.5c1.5-0.8,3.3-1.3,5.4-1.3c0.7,0,1.5,0.1,2.5,0.3
			c-0.1,0.6-0.2,1.5-0.2,2.6c0,1.1,0,2.1,0,3.2v2l-0.7,0.2c-0.8-0.4-1.7-0.8-2.7-1.2c-1-0.4-2-0.5-3-0.5c-1.1,0-2,0.2-2.6,0.6
			c-0.6,0.4-0.9,1-0.9,2c0,0.9,0.3,2.1,0.8,3.5c0.5,1.4,1.2,2.8,2,4.2l5.6-0.1C305.1,331.4,305.1,331.7,305.1,331.9z"/>
		<path fill="#BE1E2D" d="M326.7,326.3c-0.1-2.5-0.2-5.1-0.4-7.7c0.7,0.1,1.4,0.1,2.2,0.2c0.8,0.1,1.7,0.1,2.7,0.1
			c1.3,0,2.8,0,4.4-0.1c1.6-0.1,3.7-0.1,6.3-0.1c3.4,0,6.5,0.3,9.3,0.9c2.8,0.6,5.2,1.6,7.2,3.1c2,1.5,3.6,3.4,4.7,5.9
			c1.1,2.5,1.7,5.6,1.7,9.3c0,3.3-0.5,6.2-1.6,8.9c-1.1,2.6-2.6,4.9-4.4,6.8c-1.9,1.9-4,3.3-6.5,4.3c-2.5,1-5.1,1.5-7.9,1.5
			c-3,0-5.5,0-7.6-0.1c-2.1,0-3.9-0.1-5.4-0.1c-1,0-1.9,0-2.7,0c-0.8,0-1.5,0-2.2,0.1c0.2-2.4,0.3-4.9,0.4-7.5
			c0.1-2.5,0.1-5.4,0.1-8.7v-8C326.8,331.7,326.8,328.8,326.7,326.3z M335.6,347.3v3.5c0,1.1,0,2.2,0,3.1c0,0.9,0,1.6,0,1.8
			c0.6,0,1.3,0.1,2.1,0.1c0.8,0,1.9,0.1,3.1,0.1c4.5,0,8-1.5,10.6-4.6c2.6-3,3.9-7.6,3.9-13.8c0-2.4-0.3-4.6-1-6.6
			c-0.6-1.9-1.6-3.6-2.7-4.9c-1.2-1.4-2.6-2.4-4.3-3.1c-1.7-0.7-3.5-1.1-5.6-1.1c-1.4,0-2.6,0-3.5,0.1c-0.9,0.1-1.8,0.1-2.7,0.2
			c0,0.3,0,0.9,0,1.8c0,0.9,0,2,0,3.2v3.5v3v10.5V347.3z"/>
		<path fill="#BE1E2D" d="M372.5,316.3c0.9-0.9,2-1.4,3.3-1.4c1.3,0,2.4,0.5,3.3,1.4c0.9,0.9,1.4,2,1.4,3.3s-0.5,2.4-1.4,3.3
			c-0.9,0.9-2,1.4-3.3,1.4c-1.3,0-2.4-0.5-3.3-1.4c-0.9-0.9-1.4-2-1.4-3.3S371.6,317.2,372.5,316.3z M371.7,337.1
			c-0.1-2.1-0.2-4.2-0.4-6.4c0.6,0.1,1.2,0.1,2,0.2c0.7,0.1,1.6,0.1,2.5,0.1c1.9,0,3.3-0.1,4.4-0.3c-0.2,2.1-0.3,4.2-0.4,6.4
			c-0.1,2.1-0.1,4.4-0.1,6.8v2.4c0,2.4,0,4.7,0.1,6.8c0.1,2.1,0.2,4.2,0.4,6.1c-0.5-0.1-1.2-0.1-1.9-0.1c-0.8,0-1.6,0-2.5,0
			c-0.9,0-1.7,0-2.5,0c-0.7,0-1.4,0-2,0.1c0.2-2,0.3-4,0.4-6.1c0.1-2.1,0.1-4.4,0.1-6.8v-2.4C371.8,341.5,371.8,339.3,371.7,337.1z"
			/>
		<path fill="#BE1E2D" d="M395.6,338.1c1-2.7,2.3-4.7,3.7-6c1.5-1.3,3.2-1.9,5.2-1.9c0.2,0,0.4,0,0.5,0c0.1,0,0.3,0,0.4,0
			c-0.1,0.6-0.2,1.2-0.3,1.9c-0.1,0.7-0.1,1.5-0.1,2.4v1.9c0,0.3,0,0.7,0,1c0,0.4,0,0.7,0.1,1l-0.5,0.5c-0.4-0.2-0.8-0.4-1.3-0.6
			c-0.5-0.2-1.1-0.2-1.7-0.2c-1.8,0-3.2,0.6-4.2,1.7c-1,1.2-1.5,2.5-1.5,4.1v2.4c0,2.4,0,4.7,0.1,6.8c0.1,2.1,0.2,4.2,0.4,6.1
			c-0.5-0.1-1.1-0.1-1.9-0.1c-0.8,0-1.6,0-2.5,0c-0.9,0-1.7,0-2.5,0s-1.4,0-1.9,0.1c0.2-2,0.3-4,0.3-6.1c0.1-2.1,0.1-4.4,0.1-6.8
			v-2.4c0-2.4,0-4.7-0.1-6.8c-0.1-2.1-0.2-4.2-0.3-6.4c0.7,0.1,1.3,0.1,2,0.2c0.7,0.1,1.4,0.1,2,0.1s1.3,0,2-0.1
			c0.7-0.1,1.4-0.1,2-0.2l-0.2,7.2L395.6,338.1z"/>
		<path fill="#BE1E2D" d="M418.2,349.5c0.3,1.4,0.8,2.6,1.4,3.6c0.7,1,1.5,1.8,2.5,2.4c1,0.6,2.2,0.9,3.5,0.9c2.7,0,5.1-0.9,7.3-2.7
			l0.7,0.5l-1.3,3.3c-1,0.7-2.2,1.4-3.5,1.8c-1.4,0.5-3.2,0.7-5.4,0.7c-1.9,0-3.8-0.3-5.5-0.8c-1.7-0.5-3.3-1.4-4.6-2.6
			c-1.3-1.2-2.4-2.8-3.1-4.6c-0.8-1.9-1.2-4.1-1.2-6.7c0-2.6,0.3-4.8,1-6.7c0.7-1.9,1.6-3.5,2.9-4.7c1.2-1.3,2.7-2.2,4.3-2.8
			c1.7-0.6,3.5-0.9,5.5-0.9c3.9,0,6.9,1.1,9,3.4c2.1,2.3,3.1,5.5,3.1,9.7v1.2c0,0.4,0,0.6-0.1,0.7h-17
			C417.7,346.7,417.9,348.2,418.2,349.5z M425.7,335.3c-0.7-1.8-1.7-2.7-3.3-2.7c-0.9,0-1.6,0.3-2.2,0.9c-0.6,0.6-1.1,1.4-1.4,2.3
			c-0.4,0.9-0.6,2-0.8,3.1c-0.2,1.2-0.3,2.3-0.3,3.5h9.1C426.7,339.5,426.4,337.1,425.7,335.3z"/>
		<path fill="#BE1E2D" d="M459.4,334.7c-0.9-1.1-2.3-1.6-4.1-1.6c-2.4,0-4.1,1.1-5.3,3.2c-1.2,2.1-1.8,5.1-1.8,9
			c0,3.6,0.7,6.3,2.2,8.2c1.5,1.9,3.7,2.9,6.6,2.9c1.2,0,2.4-0.3,3.5-0.9c1.1-0.6,2-1.2,2.5-1.9l0.7,0.6c-0.3,0.6-0.5,1.1-0.7,1.7
			c-0.2,0.6-0.4,1.2-0.6,1.8c-0.9,0.7-2,1.2-3.3,1.7c-1.3,0.5-2.9,0.7-4.7,0.7c-2.9,0-5.3-0.4-7.3-1.2c-2-0.8-3.6-2-4.8-3.4
			c-1.2-1.4-2.1-3-2.6-4.8c-0.5-1.8-0.8-3.6-0.8-5.4c0-2.2,0.4-4.2,1.1-6c0.7-1.9,1.8-3.4,3.1-4.8c1.4-1.3,3-2.4,4.9-3.2
			c1.9-0.8,4.1-1.2,6.4-1.2c2.2,0,4.1,0.3,5.7,0.8c1.6,0.5,3,1.2,4.5,2c-0.5,0.8-0.9,1.8-1.3,2.9c-0.4,1.1-0.7,2.2-0.9,3.3h-1.4
			C460.9,337.2,460.3,335.7,459.4,334.7z"/>
		<path fill="#BE1E2D" d="M484.6,332.7c0,0.5,0.1,1,0.2,1.5l-5.2-0.1c-0.1,0.9-0.1,2-0.2,3.1c-0.1,1.2-0.1,2.4-0.1,3.6
			c0,1.2,0,2.4-0.1,3.5c0,1.1,0,2.1,0,2.9c0,2.1,0,3.7,0.1,5c0.1,1.3,0.3,2.2,0.5,2.9c0.2,0.7,0.6,1.1,1,1.4c0.4,0.2,1,0.4,1.7,0.4
			c0.7,0,1.3,0,1.7-0.1c0.4-0.1,0.7-0.2,1.1-0.4v2.4c-0.8,0.4-1.8,0.7-3,0.9c-1.2,0.3-2.3,0.4-3.5,0.4c-5,0-7.5-3-7.5-9
			c0-1.1,0-2.4,0.1-3.9c0-1.4,0.1-2.9,0.1-4.4c0.1-1.5,0.1-3,0.1-4.5c0-1.5,0.1-2.8,0.1-4.1l-4.1,0.1c0.1-0.5,0.2-1,0.2-1.5
			c0-0.5-0.1-1-0.2-1.6l4.1,0.2c0-1.2,0-2.4-0.1-3.4c0-1.1-0.1-2.3-0.2-3.8c1.4-0.6,2.7-1.1,4.1-1.7c1.3-0.6,2.7-1.3,4-1.9l0.6,0.4
			c-0.1,0.6-0.1,1.4-0.2,2.2c-0.1,0.8-0.1,1.7-0.2,2.7c-0.1,0.9-0.1,1.9-0.1,2.8c0,1,0,1.9,0,2.7l5.2-0.1
			C484.7,331.7,484.6,332.2,484.6,332.7z"/>
		<path fill="#BE1E2D" d="M489,338.9c0.8-2,1.9-3.6,3.2-4.9c1.3-1.3,2.9-2.3,4.6-3c1.8-0.7,3.6-1,5.4-1c4.6,0,8.2,1.3,10.7,3.9
			c2.5,2.6,3.8,6.1,3.8,10.6c0,2.4-0.4,4.6-1.1,6.5c-0.7,1.9-1.7,3.6-3,4.9c-1.3,1.4-2.8,2.4-4.6,3c-1.8,0.7-3.7,1-5.9,1
			c-1.8,0-3.5-0.2-5.2-0.7c-1.7-0.5-3.3-1.3-4.6-2.4c-1.4-1.1-2.5-2.6-3.3-4.4c-0.8-1.8-1.3-4-1.3-6.7
			C487.8,343.2,488.2,340.9,489,338.9z M506.7,335.5c-0.9-1.9-2.3-2.9-4.3-2.9c-1.8,0-3.2,1.1-4.3,3.2c-1,2.1-1.6,5.5-1.6,10
			c0,1.7,0.1,3.2,0.3,4.6c0.2,1.4,0.5,2.7,1,3.7c0.5,1,1,1.9,1.8,2.5c0.7,0.6,1.6,0.9,2.7,0.9c3.8,0,5.7-4.6,5.7-13.9
			C508,340.2,507.6,337.5,506.7,335.5z"/>
		<path fill="#BE1E2D" d="M530.3,338.1c1-2.7,2.3-4.7,3.7-6c1.5-1.3,3.2-1.9,5.2-1.9c0.2,0,0.4,0,0.5,0c0.1,0,0.3,0,0.4,0
			c-0.1,0.6-0.2,1.2-0.3,1.9c-0.1,0.7-0.1,1.5-0.1,2.4v1.9c0,0.3,0,0.7,0,1c0,0.4,0,0.7,0.1,1l-0.5,0.5c-0.4-0.2-0.8-0.4-1.3-0.6
			c-0.5-0.2-1.1-0.2-1.7-0.2c-1.8,0-3.2,0.6-4.2,1.7c-1,1.2-1.5,2.5-1.5,4.1v2.4c0,2.4,0,4.7,0.1,6.8c0.1,2.1,0.2,4.2,0.4,6.1
			c-0.5-0.1-1.1-0.1-1.9-0.1c-0.8,0-1.6,0-2.5,0s-1.7,0-2.5,0c-0.7,0-1.4,0-1.9,0.1c0.2-2,0.3-4,0.3-6.1c0.1-2.1,0.1-4.4,0.1-6.8
			v-2.4c0-2.4,0-4.7-0.1-6.8c-0.1-2.1-0.2-4.2-0.3-6.4c0.7,0.1,1.3,0.1,2,0.2c0.7,0.1,1.4,0.1,2,0.1c0.7,0,1.3,0,2-0.1
			c0.7-0.1,1.4-0.1,2-0.2l-0.2,7.2L530.3,338.1z"/>
		<path fill="#BE1E2D" d="M546.7,353.8c0.4,0.6,0.8,1.1,1.4,1.5c0.6,0.5,1.2,0.8,2,1.1c0.8,0.3,1.7,0.4,2.7,0.4
			c1.4,0,2.4-0.4,3.2-1.1c0.7-0.7,1.1-1.5,1.1-2.3c0-0.9-0.3-1.6-1-2.2c-0.7-0.6-1.5-1.1-2.5-1.5c-1-0.5-2.1-0.9-3.3-1.4
			c-1.2-0.5-2.3-1.1-3.3-1.8c-1-0.7-1.8-1.6-2.5-2.7c-0.7-1.1-1-2.5-1-4.3c0-1.7,0.3-3.1,0.9-4.3c0.6-1.2,1.4-2.2,2.4-3
			c1-0.8,2.1-1.3,3.3-1.7c1.2-0.4,2.5-0.6,3.7-0.6c1.7,0,3.1,0.2,4.4,0.7c1.3,0.5,2.6,1.2,3.9,2.1c-0.4,0.8-0.7,1.6-0.9,2.5
			c-0.2,0.9-0.4,1.8-0.5,2.7h-1.7c-0.1-0.5-0.3-1-0.6-1.6c-0.3-0.6-0.7-1.1-1.1-1.6c-0.5-0.5-1-0.9-1.7-1.3
			c-0.7-0.3-1.5-0.5-2.4-0.5c-1.2,0-2.2,0.3-3,0.9c-0.8,0.6-1.2,1.5-1.2,2.5c0,0.9,0.3,1.7,1,2.3c0.7,0.6,1.5,1.1,2.6,1.5
			c1,0.4,2.1,0.9,3.4,1.3c1.2,0.4,2.3,1,3.4,1.7c1,0.7,1.9,1.6,2.6,2.7c0.7,1.1,1,2.5,1,4.3c0,1.7-0.3,3.2-0.9,4.5
			c-0.6,1.2-1.5,2.3-2.5,3.1c-1.1,0.8-2.3,1.4-3.6,1.7c-1.4,0.4-2.8,0.5-4.3,0.5c-1.8,0-3.4-0.3-4.8-0.8c-1.4-0.5-2.5-1-3.4-1.6
			c0.5-1.9,0.8-3.8,0.9-5.7h1.5C546,352.6,546.3,353.2,546.7,353.8z"/>
	</g>
</g>
</svg>
